ISO-10303-21;
HEADER;
/* Generated by software containing ST-Developer
 * from STEP Tools, Inc. (www.steptools.com) 
 */

FILE_DESCRIPTION(
/* description */ (''),
/* implementation_level */ '2;1');

FILE_NAME(
/* name */ 'Tamagotchi Case Button Bottom.step',
/* time_stamp */ '2026-06-08T02:49:44+08:00',
/* author */ (''),
/* organization */ (''),
/* preprocessor_version */ 'ST-DEVELOPER v20.1',
/* originating_system */ 'Autodesk Translation Framework v15.8.0.0',
/* authorisation */ '');

FILE_SCHEMA (('AUTOMOTIVE_DESIGN { 1 0 10303 214 3 1 1 }'));
ENDSEC;

DATA;
#10=MECHANICAL_DESIGN_GEOMETRIC_PRESENTATION_REPRESENTATION('',(#13),#216);
#11=SHAPE_REPRESENTATION_RELATIONSHIP('SRR','None',#222,#12);
#12=ADVANCED_BREP_SHAPE_REPRESENTATION('',(#14),#215);
#13=STYLED_ITEM('',(#233),#14);
#14=MANIFOLD_SOLID_BREP('Button(Bottom)',#132);
#15=FACE_BOUND('',#34,.T.);
#16=PLANE('',#137);
#17=PLANE('',#138);
#18=PLANE('',#139);
#19=PLANE('',#140);
#20=PLANE('',#141);
#21=PLANE('',#142);
#22=PLANE('',#143);
#23=FACE_OUTER_BOUND('',#31,.T.);
#24=FACE_OUTER_BOUND('',#32,.T.);
#25=FACE_OUTER_BOUND('',#33,.T.);
#26=FACE_OUTER_BOUND('',#35,.T.);
#27=FACE_OUTER_BOUND('',#36,.T.);
#28=FACE_OUTER_BOUND('',#37,.T.);
#29=FACE_OUTER_BOUND('',#38,.T.);
#30=FACE_OUTER_BOUND('',#39,.T.);
#31=EDGE_LOOP('',(#93,#94,#95,#96));
#32=EDGE_LOOP('',(#97));
#33=EDGE_LOOP('',(#98,#99,#100,#101));
#34=EDGE_LOOP('',(#102));
#35=EDGE_LOOP('',(#103,#104,#105,#106));
#36=EDGE_LOOP('',(#107,#108,#109,#110));
#37=EDGE_LOOP('',(#111,#112,#113,#114));
#38=EDGE_LOOP('',(#115,#116,#117,#118));
#39=EDGE_LOOP('',(#119,#120,#121,#122));
#40=LINE('',#184,#53);
#41=LINE('',#190,#54);
#42=LINE('',#192,#55);
#43=LINE('',#194,#56);
#44=LINE('',#195,#57);
#45=LINE('',#198,#58);
#46=LINE('',#200,#59);
#47=LINE('',#201,#60);
#48=LINE('',#204,#61);
#49=LINE('',#205,#62);
#50=LINE('',#208,#63);
#51=LINE('',#209,#64);
#52=LINE('',#211,#65);
#53=VECTOR('',#150,0.600000000000001);
#54=VECTOR('',#157,10.);
#55=VECTOR('',#158,10.);
#56=VECTOR('',#159,10.);
#57=VECTOR('',#160,10.);
#58=VECTOR('',#163,10.);
#59=VECTOR('',#164,10.);
#60=VECTOR('',#165,10.);
#61=VECTOR('',#168,10.);
#62=VECTOR('',#169,10.);
#63=VECTOR('',#172,10.);
#64=VECTOR('',#173,10.);
#65=VECTOR('',#176,10.);
#66=CIRCLE('',#135,0.600000000000001);
#67=CIRCLE('',#136,0.600000000000001);
#68=VERTEX_POINT('',#181);
#69=VERTEX_POINT('',#183);
#70=VERTEX_POINT('',#188);
#71=VERTEX_POINT('',#189);
#72=VERTEX_POINT('',#191);
#73=VERTEX_POINT('',#193);
#74=VERTEX_POINT('',#197);
#75=VERTEX_POINT('',#199);
#76=VERTEX_POINT('',#203);
#77=VERTEX_POINT('',#207);
#78=EDGE_CURVE('',#68,#68,#66,.T.);
#79=EDGE_CURVE('',#68,#69,#40,.T.);
#80=EDGE_CURVE('',#69,#69,#67,.T.);
#81=EDGE_CURVE('',#70,#71,#41,.T.);
#82=EDGE_CURVE('',#72,#70,#42,.T.);
#83=EDGE_CURVE('',#73,#72,#43,.T.);
#84=EDGE_CURVE('',#71,#73,#44,.T.);
#85=EDGE_CURVE('',#70,#74,#45,.T.);
#86=EDGE_CURVE('',#75,#74,#46,.T.);
#87=EDGE_CURVE('',#72,#75,#47,.T.);
#88=EDGE_CURVE('',#71,#76,#48,.T.);
#89=EDGE_CURVE('',#74,#76,#49,.T.);
#90=EDGE_CURVE('',#77,#75,#50,.T.);
#91=EDGE_CURVE('',#73,#77,#51,.T.);
#92=EDGE_CURVE('',#76,#77,#52,.T.);
#93=ORIENTED_EDGE('',*,*,#78,.F.);
#94=ORIENTED_EDGE('',*,*,#79,.T.);
#95=ORIENTED_EDGE('',*,*,#80,.F.);
#96=ORIENTED_EDGE('',*,*,#79,.F.);
#97=ORIENTED_EDGE('',*,*,#78,.T.);
#98=ORIENTED_EDGE('',*,*,#81,.F.);
#99=ORIENTED_EDGE('',*,*,#82,.F.);
#100=ORIENTED_EDGE('',*,*,#83,.F.);
#101=ORIENTED_EDGE('',*,*,#84,.F.);
#102=ORIENTED_EDGE('',*,*,#80,.T.);
#103=ORIENTED_EDGE('',*,*,#82,.T.);
#104=ORIENTED_EDGE('',*,*,#85,.T.);
#105=ORIENTED_EDGE('',*,*,#86,.F.);
#106=ORIENTED_EDGE('',*,*,#87,.F.);
#107=ORIENTED_EDGE('',*,*,#81,.T.);
#108=ORIENTED_EDGE('',*,*,#88,.T.);
#109=ORIENTED_EDGE('',*,*,#89,.F.);
#110=ORIENTED_EDGE('',*,*,#85,.F.);
#111=ORIENTED_EDGE('',*,*,#83,.T.);
#112=ORIENTED_EDGE('',*,*,#87,.T.);
#113=ORIENTED_EDGE('',*,*,#90,.F.);
#114=ORIENTED_EDGE('',*,*,#91,.F.);
#115=ORIENTED_EDGE('',*,*,#84,.T.);
#116=ORIENTED_EDGE('',*,*,#91,.T.);
#117=ORIENTED_EDGE('',*,*,#92,.F.);
#118=ORIENTED_EDGE('',*,*,#88,.F.);
#119=ORIENTED_EDGE('',*,*,#89,.T.);
#120=ORIENTED_EDGE('',*,*,#92,.T.);
#121=ORIENTED_EDGE('',*,*,#90,.T.);
#122=ORIENTED_EDGE('',*,*,#86,.T.);
#123=CYLINDRICAL_SURFACE('',#134,0.600000000000001);
#124=ADVANCED_FACE('',(#23),#123,.T.);
#125=ADVANCED_FACE('',(#24),#16,.T.);
#126=ADVANCED_FACE('',(#25,#15),#17,.F.);
#127=ADVANCED_FACE('',(#26),#18,.T.);
#128=ADVANCED_FACE('',(#27),#19,.T.);
#129=ADVANCED_FACE('',(#28),#20,.T.);
#130=ADVANCED_FACE('',(#29),#21,.T.);
#131=ADVANCED_FACE('',(#30),#22,.T.);
#132=CLOSED_SHELL('',(#124,#125,#126,#127,#128,#129,#130,#131));
#133=AXIS2_PLACEMENT_3D('',#179,#144,#145);
#134=AXIS2_PLACEMENT_3D('',#180,#146,#147);
#135=AXIS2_PLACEMENT_3D('',#182,#148,#149);
#136=AXIS2_PLACEMENT_3D('',#185,#151,#152);
#137=AXIS2_PLACEMENT_3D('',#186,#153,#154);
#138=AXIS2_PLACEMENT_3D('',#187,#155,#156);
#139=AXIS2_PLACEMENT_3D('',#196,#161,#162);
#140=AXIS2_PLACEMENT_3D('',#202,#166,#167);
#141=AXIS2_PLACEMENT_3D('',#206,#170,#171);
#142=AXIS2_PLACEMENT_3D('',#210,#174,#175);
#143=AXIS2_PLACEMENT_3D('',#212,#177,#178);
#144=DIRECTION('axis',(0.,0.,1.));
#145=DIRECTION('refdir',(1.,0.,0.));
#146=DIRECTION('center_axis',(1.,0.,0.));
#147=DIRECTION('ref_axis',(0.,0.,-1.));
#148=DIRECTION('center_axis',(1.,0.,0.));
#149=DIRECTION('ref_axis',(0.,0.,-1.));
#150=DIRECTION('',(-1.,0.,0.));
#151=DIRECTION('center_axis',(-1.,0.,0.));
#152=DIRECTION('ref_axis',(0.,0.,-1.));
#153=DIRECTION('center_axis',(1.,0.,0.));
#154=DIRECTION('ref_axis',(0.,0.,-1.));
#155=DIRECTION('center_axis',(-1.,0.,0.));
#156=DIRECTION('ref_axis',(0.,0.,1.));
#157=DIRECTION('',(0.,0.,-1.));
#158=DIRECTION('',(0.,1.,0.));
#159=DIRECTION('',(0.,0.,1.));
#160=DIRECTION('',(0.,-1.,0.));
#161=DIRECTION('center_axis',(0.,0.,1.));
#162=DIRECTION('ref_axis',(0.,1.,0.));
#163=DIRECTION('',(-1.,0.,0.));
#164=DIRECTION('',(0.,1.,0.));
#165=DIRECTION('',(-1.,0.,0.));
#166=DIRECTION('center_axis',(0.,1.,0.));
#167=DIRECTION('ref_axis',(0.,0.,-1.));
#168=DIRECTION('',(-1.,0.,0.));
#169=DIRECTION('',(0.,0.,-1.));
#170=DIRECTION('center_axis',(0.,-1.,0.));
#171=DIRECTION('ref_axis',(0.,0.,1.));
#172=DIRECTION('',(0.,0.,1.));
#173=DIRECTION('',(-1.,0.,0.));
#174=DIRECTION('center_axis',(0.,0.,-1.));
#175=DIRECTION('ref_axis',(0.,-1.,0.));
#176=DIRECTION('',(0.,-1.,0.));
#177=DIRECTION('center_axis',(-1.,0.,0.));
#178=DIRECTION('ref_axis',(0.,0.,1.));
#179=CARTESIAN_POINT('',(0.,0.,0.));
#180=CARTESIAN_POINT('Origin',(-10.,14.3742270867528,11.4887569495628));
#181=CARTESIAN_POINT('',(-9.25,14.3742270867528,12.0887569495628));
#182=CARTESIAN_POINT('Origin',(-9.25,14.3742270867528,11.4887569495628));
#183=CARTESIAN_POINT('',(-10.,14.3742270867528,12.0887569495628));
#184=CARTESIAN_POINT('',(-10.,14.3742270867528,12.0887569495628));
#185=CARTESIAN_POINT('Origin',(-10.,14.3742270867528,11.4887569495628));
#186=CARTESIAN_POINT('Origin',(-9.25,14.3742270867528,11.4887569495628));
#187=CARTESIAN_POINT('Origin',(-10.,13.5343825077187,11.4887569495628));
#188=CARTESIAN_POINT('',(-10.,14.9843825077187,13.9387569495628));
#189=CARTESIAN_POINT('',(-10.,14.9843825077187,9.03875694956281));
#190=CARTESIAN_POINT('',(-10.,14.9843825077187,12.7137569495628));
#191=CARTESIAN_POINT('',(-10.,12.0843825077187,13.9387569495628));
#192=CARTESIAN_POINT('',(-10.,12.8093825077187,13.9387569495628));
#193=CARTESIAN_POINT('',(-10.,12.0843825077187,9.03875694956281));
#194=CARTESIAN_POINT('',(-10.,12.0843825077187,10.2637569495628));
#195=CARTESIAN_POINT('',(-10.,14.2593825077187,9.03875694956281));
#196=CARTESIAN_POINT('Origin',(0.,12.0843825077187,13.9387569495628));
#197=CARTESIAN_POINT('',(-12.,14.9843825077187,13.9387569495628));
#198=CARTESIAN_POINT('',(0.,14.9843825077187,13.9387569495628));
#199=CARTESIAN_POINT('',(-12.,12.0843825077187,13.9387569495628));
#200=CARTESIAN_POINT('',(-12.,12.0843825077187,13.9387569495628));
#201=CARTESIAN_POINT('',(0.,12.0843825077187,13.9387569495628));
#202=CARTESIAN_POINT('Origin',(0.,14.9843825077187,13.9387569495628));
#203=CARTESIAN_POINT('',(-12.,14.9843825077187,9.03875694956281));
#204=CARTESIAN_POINT('',(0.,14.9843825077187,9.03875694956281));
#205=CARTESIAN_POINT('',(-12.,14.9843825077187,13.9387569495628));
#206=CARTESIAN_POINT('Origin',(0.,12.0843825077187,9.03875694956281));
#207=CARTESIAN_POINT('',(-12.,12.0843825077187,9.03875694956281));
#208=CARTESIAN_POINT('',(-12.,12.0843825077187,9.03875694956281));
#209=CARTESIAN_POINT('',(0.,12.0843825077187,9.03875694956281));
#210=CARTESIAN_POINT('Origin',(0.,14.9843825077187,9.03875694956281));
#211=CARTESIAN_POINT('',(-12.,14.9843825077187,9.03875694956281));
#212=CARTESIAN_POINT('Origin',(-12.,13.5343825077187,11.4887569495628));
#213=UNCERTAINTY_MEASURE_WITH_UNIT(LENGTH_MEASURE(0.01),#217,
'DISTANCE_ACCURACY_VALUE',
'Maximum model space distance between geometric entities at asserted c
onnectivities');
#214=UNCERTAINTY_MEASURE_WITH_UNIT(LENGTH_MEASURE(0.01),#217,
'DISTANCE_ACCURACY_VALUE',
'Maximum model space distance between geometric entities at asserted c
onnectivities');
#215=(
GEOMETRIC_REPRESENTATION_CONTEXT(3)
GLOBAL_UNCERTAINTY_ASSIGNED_CONTEXT((#213))
GLOBAL_UNIT_ASSIGNED_CONTEXT((#217,#218,#219))
REPRESENTATION_CONTEXT('','3D')
);
#216=(
GEOMETRIC_REPRESENTATION_CONTEXT(3)
GLOBAL_UNCERTAINTY_ASSIGNED_CONTEXT((#214))
GLOBAL_UNIT_ASSIGNED_CONTEXT((#217,#218,#219))
REPRESENTATION_CONTEXT('','3D')
);
#217=(
LENGTH_UNIT()
NAMED_UNIT(*)
SI_UNIT(.MILLI.,.METRE.)
);
#218=(
NAMED_UNIT(*)
PLANE_ANGLE_UNIT()
SI_UNIT($,.RADIAN.)
);
#219=(
NAMED_UNIT(*)
SI_UNIT($,.STERADIAN.)
SOLID_ANGLE_UNIT()
);
#220=SHAPE_DEFINITION_REPRESENTATION(#221,#222);
#221=PRODUCT_DEFINITION_SHAPE('',$,#224);
#222=SHAPE_REPRESENTATION('',(#133),#215);
#223=PRODUCT_DEFINITION_CONTEXT('part definition',#228,'design');
#224=PRODUCT_DEFINITION('Case','Case v3',#225,#223);
#225=PRODUCT_DEFINITION_FORMATION('',$,#230);
#226=PRODUCT_RELATED_PRODUCT_CATEGORY('Case v3','Case v3',(#230));
#227=APPLICATION_PROTOCOL_DEFINITION('international standard',
'automotive_design',2009,#228);
#228=APPLICATION_CONTEXT(
'Core Data for Automotive Mechanical Design Process');
#229=PRODUCT_CONTEXT('part definition',#228,'mechanical');
#230=PRODUCT('Case','Case v3',$,(#229));
#231=PRESENTATION_STYLE_ASSIGNMENT((#234));
#232=PRESENTATION_STYLE_ASSIGNMENT((#235));
#233=PRESENTATION_STYLE_ASSIGNMENT((#236));
#234=SURFACE_STYLE_USAGE(.BOTH.,#237);
#235=SURFACE_STYLE_USAGE(.BOTH.,#238);
#236=SURFACE_STYLE_USAGE(.BOTH.,#239);
#237=SURFACE_SIDE_STYLE('',(#240));
#238=SURFACE_SIDE_STYLE('',(#241));
#239=SURFACE_SIDE_STYLE('',(#242));
#240=SURFACE_STYLE_FILL_AREA(#243);
#241=SURFACE_STYLE_FILL_AREA(#244);
#242=SURFACE_STYLE_FILL_AREA(#245);
#243=FILL_AREA_STYLE('Steel - Satin',(#246));
#244=FILL_AREA_STYLE('Plastic - Matte (Yellow)',(#247));
#245=FILL_AREA_STYLE('Plastic - Matte (Black)',(#248));
#246=FILL_AREA_STYLE_COLOUR('Steel - Satin',#249);
#247=FILL_AREA_STYLE_COLOUR('Plastic - Matte (Yellow)',#250);
#248=FILL_AREA_STYLE_COLOUR('Plastic - Matte (Black)',#251);
#249=COLOUR_RGB('Steel - Satin',0.627450980392157,0.627450980392157,0.627450980392157);
#250=COLOUR_RGB('Plastic - Matte (Yellow)',0.909803921568627,0.67843137254902,
0.137254901960784);
#251=COLOUR_RGB('Plastic - Matte (Black)',0.0980392156862745,0.0980392156862745,
0.0980392156862745);
ENDSEC;
END-ISO-10303-21;
